<svg width="8" height="8" viewBox="0 0 8 8" fill="none" xmlns="http://www.w3.org/2000/svg">
<path d="M4.1534 7.58337C4.09673 7.58337 4.04006 7.58337 3.9834 7.58004C2.11673 7.49671 0.556731 5.99337 0.426731 4.16004C0.313397 2.5867 1.2234 1.1167 2.69006 0.500038C3.10673 0.326705 3.32673 0.460038 3.42006 0.556705C3.5134 0.650038 3.6434 0.866705 3.47006 1.26337C3.31673 1.6167 3.24006 1.99337 3.2434 2.38004C3.25006 3.8567 4.47673 5.11004 5.9734 5.17004C6.19006 5.18004 6.4034 5.16337 6.61006 5.12671C7.05006 5.0467 7.2334 5.22337 7.3034 5.33671C7.3734 5.45004 7.4534 5.69337 7.18673 6.05337C6.48006 7.02004 5.35673 7.58337 4.1534 7.58337ZM0.923397 4.12337C1.03673 5.71004 2.39006 7.01004 4.0034 7.08004C5.10006 7.13337 6.14006 6.63337 6.78006 5.76004C6.83006 5.69004 6.8534 5.64004 6.8634 5.61337C6.8334 5.61004 6.78006 5.60671 6.69673 5.62337C6.4534 5.66671 6.20006 5.68337 5.95006 5.67337C4.19006 5.60337 2.75006 4.1267 2.74006 2.3867C2.74006 1.9267 2.83006 1.48337 3.0134 1.0667C3.04673 0.993371 3.0534 0.943371 3.05673 0.916705C3.02673 0.916705 2.9734 0.923372 2.88673 0.960038C1.61673 1.49337 0.830064 2.7667 0.923397 4.12337Z" fill="currentColor"/>
</svg>
