<svg width="15" height="17" viewBox="0 0 15 17" fill="none" xmlns="http://www.w3.org/2000/svg">
<path d="M10.8333 0H4.16667C1.25 0 0 1.66667 0 4.16667V12.5C0 15 1.25 16.6667 4.16667 16.6667H10.8333C13.75 16.6667 15 15 15 12.5V4.16667C15 1.66667 13.75 0 10.8333 0ZM4.16667 8.54167H7.5C7.84167 8.54167 8.125 8.825 8.125 9.16667C8.125 9.50833 7.84167 9.79167 7.5 9.79167H4.16667C3.825 9.79167 3.54167 9.50833 3.54167 9.16667C3.54167 8.825 3.825 8.54167 4.16667 8.54167ZM10.8333 13.125H4.16667C3.825 13.125 3.54167 12.8417 3.54167 12.5C3.54167 12.1583 3.825 11.875 4.16667 11.875H10.8333C11.175 11.875 11.4583 12.1583 11.4583 12.5C11.4583 12.8417 11.175 13.125 10.8333 13.125ZM12.9167 6.04167H11.25C9.98333 6.04167 8.95833 5.01667 8.95833 3.75V2.08333C8.95833 1.74167 9.24167 1.45833 9.58333 1.45833C9.925 1.45833 10.2083 1.74167 10.2083 2.08333V3.75C10.2083 4.325 10.675 4.79167 11.25 4.79167H12.9167C13.2583 4.79167 13.5417 5.075 13.5417 5.41667C13.5417 5.75833 13.2583 6.04167 12.9167 6.04167Z" fill="#00AAFE"/>
</svg>
