<svg width="18" height="18" viewBox="0 0 18 18" fill="none" xmlns="http://www.w3.org/2000/svg">
<path d="M8.9998 17.0701C8.1823 17.0701 7.3723 16.8301 6.7348 16.3576L3.5098 13.9501C2.6548 13.3126 1.9873 11.9776 1.9873 10.9201V5.34008C1.9873 4.18508 2.8348 2.95508 3.9223 2.55008L7.6648 1.14758C8.4073 0.870078 9.57731 0.870078 10.3198 1.14758L14.0623 2.55008C15.1498 2.95508 15.9973 4.18508 15.9973 5.34008V10.9126C15.9973 11.9776 15.3298 13.3051 14.4748 13.9426L11.2498 16.3501C10.6273 16.8301 9.81731 17.0701 8.9998 17.0701ZM8.0623 2.20508L4.3198 3.60758C3.6823 3.84758 3.1198 4.65758 3.1198 5.34758V10.9201C3.1198 11.6326 3.6223 12.6301 4.1848 13.0501L7.4098 15.4576C8.2723 16.1026 9.7273 16.1026 10.5973 15.4576L13.8223 13.0501C14.3923 12.6226 14.8873 11.6326 14.8873 10.9201V5.34008C14.8873 4.65758 14.3248 3.84758 13.6873 3.60008L9.94481 2.19758C9.4348 2.01758 8.56481 2.01758 8.0623 2.20508Z" fill="currentColor"/>
<path d="M7.99469 10.6723C7.85219 10.6723 7.70969 10.6198 7.59719 10.5073L6.38969 9.29984C6.17219 9.08234 6.17219 8.72234 6.38969 8.50484C6.60719 8.28734 6.96719 8.28734 7.18469 8.50484L7.99469 9.31484L10.8222 6.48734C11.0397 6.26984 11.3997 6.26984 11.6172 6.48734C11.8347 6.70484 11.8347 7.06484 11.6172 7.28234L8.39219 10.5073C8.27969 10.6198 8.13719 10.6723 7.99469 10.6723Z" fill="currentColor"/>
</svg>
