<svg width="24" height="24" viewBox="0 0 24 24" fill="none" xmlns="http://www.w3.org/2000/svg">
<path d="M18.8789 3.75H9.61891C9.20891 3.75 8.87891 3.41 8.87891 3C8.87891 2.59 9.21891 2.25 9.62891 2.25H18.8789C19.2889 2.25 19.6289 2.59 19.6289 3C19.6289 3.41 19.2889 3.75 18.8789 3.75Z" fill="currentColor"/>
<path d="M14.3811 21.75H5.12109C4.71109 21.75 4.37109 21.41 4.37109 21C4.37109 20.59 4.71109 20.25 5.12109 20.25H14.3711C14.7811 20.25 15.1211 20.59 15.1211 21C15.1211 21.41 14.7911 21.75 14.3811 21.75Z" fill="currentColor"/>
<path d="M9.74814 21.75C9.68814 21.75 9.62814 21.74 9.56814 21.73C9.16814 21.63 8.91814 21.22 9.01814 20.82L13.5181 2.82C13.6181 2.42 14.0181 2.17 14.4281 2.27C14.8281 2.37 15.0781 2.78 14.9781 3.18L10.4781 21.18C10.3881 21.52 10.0881 21.75 9.74814 21.75Z" fill="currentColor"/>
</svg>
